<svg width="192" height="60" viewBox="0 0 192 60" fill="none" xmlns="http://www.w3.org/2000/svg">
<path d="M23.168 48V25.2H27.488V48H23.168ZM27.488 34.992L25.856 34.272C25.856 31.36 26.528 29.04 27.872 27.312C29.216 25.584 31.152 24.72 33.68 24.72C34.832 24.72 35.872 24.928 36.8 25.344C37.728 25.728 38.592 26.384 39.392 27.312L36.56 30.24C36.08 29.728 35.552 29.36 34.976 29.136C34.4 28.912 33.728 28.8 32.96 28.8C31.36 28.8 30.048 29.312 29.024 30.336C28 31.36 27.488 32.912 27.488 34.992ZM52.2436 48.48C49.9716 48.48 47.9236 47.968 46.0996 46.944C44.2756 45.888 42.8356 44.464 41.7796 42.672C40.7236 40.88 40.1956 38.848 40.1956 36.576C40.1956 34.336 40.7076 32.32 41.7316 30.528C42.7876 28.736 44.1956 27.328 45.9556 26.304C47.7476 25.248 49.7476 24.72 51.9556 24.72C54.0676 24.72 55.9236 25.2 57.5236 26.16C59.1556 27.12 60.4196 28.448 61.3156 30.144C62.2436 31.84 62.7076 33.76 62.7076 35.904C62.7076 36.224 62.6916 36.576 62.6596 36.96C62.6276 37.312 62.5636 37.728 62.4676 38.208H43.2196V34.608H60.1636L58.5796 36C58.5796 34.464 58.3076 33.168 57.7636 32.112C57.2196 31.024 56.4516 30.192 55.4596 29.616C54.4676 29.008 53.2676 28.704 51.8596 28.704C50.3876 28.704 49.0916 29.024 47.9716 29.664C46.8516 30.304 45.9876 31.2 45.3796 32.352C44.7716 33.504 44.4676 34.864 44.4676 36.432C44.4676 38.032 44.7876 39.44 45.4276 40.656C46.0676 41.84 46.9796 42.768 48.1636 43.44C49.3476 44.08 50.7076 44.4 52.2436 44.4C53.5236 44.4 54.6916 44.176 55.7476 43.728C56.8356 43.28 57.7636 42.608 58.5316 41.712L61.3156 44.544C60.2276 45.824 58.8836 46.8 57.2836 47.472C55.7156 48.144 54.0356 48.48 52.2436 48.48Z" fill="white"/>
<path fill-rule="evenodd" clip-rule="evenodd" d="M77.5 15.4167C77.5 14.2661 78.4327 13.3333 79.5833 13.3333C80.7339 13.3333 81.6667 14.2661 81.6667 15.4167C81.6667 16.5673 80.7339 17.5 79.5833 17.5C78.4327 17.5 77.5 16.5673 77.5 15.4167ZM81.6667 21.311C84.0941 20.453 85.8333 18.138 85.8333 15.4167C85.8333 11.9649 83.0351 9.16667 79.5833 9.16667C76.1315 9.16667 73.3333 11.9649 73.3333 15.4167C73.3333 18.138 75.0725 20.453 77.5 21.311V38.689C75.0725 39.5469 73.3333 41.8621 73.3333 44.5833C73.3333 48.0352 76.1315 50.8333 79.5833 50.8333C83.0351 50.8333 85.8333 48.0352 85.8333 44.5833C85.8333 41.9446 84.198 39.6877 81.8856 38.771C82.6079 36.1177 85.0344 34.1667 87.9167 34.1667H92.0833C98.9869 34.1667 104.583 28.5702 104.583 21.6667V21.311C107.011 20.453 108.75 18.138 108.75 15.4167C108.75 11.9649 105.952 9.16667 102.5 9.16667C99.0481 9.16667 96.25 11.9649 96.25 15.4167C96.25 18.138 97.9892 20.453 100.417 21.311V21.6667C100.417 26.269 96.6856 30 92.0833 30H87.9167C85.5716 30 83.4076 30.7748 81.6667 32.0825V21.311ZM102.5 17.5C103.651 17.5 104.583 16.5673 104.583 15.4167C104.583 14.2661 103.651 13.3333 102.5 13.3333C101.349 13.3333 100.417 14.2661 100.417 15.4167C100.417 16.5673 101.349 17.5 102.5 17.5ZM77.5 44.5833C77.5 43.4327 78.4327 42.5 79.5833 42.5C80.7339 42.5 81.6667 43.4327 81.6667 44.5833C81.6667 45.734 80.7339 46.6667 79.5833 46.6667C78.4327 46.6667 77.5 45.734 77.5 44.5833Z" fill="#A8EB00"/>
<path d="M118.216 48V25.2H122.536V48H118.216ZM120.376 20.64C119.576 20.64 118.92 20.384 118.408 19.872C117.896 19.328 117.64 18.656 117.64 17.856C117.64 17.088 117.896 16.448 118.408 15.936C118.92 15.392 119.576 15.12 120.376 15.12C121.176 15.12 121.832 15.392 122.344 15.936C122.856 16.448 123.112 17.088 123.112 17.856C123.112 18.656 122.856 19.328 122.344 19.872C121.832 20.384 121.176 20.64 120.376 20.64ZM136.15 48.48C134.87 48.48 133.654 48.32 132.502 48C131.382 47.648 130.342 47.168 129.382 46.56C128.422 45.92 127.59 45.168 126.886 44.304L129.67 41.52C130.502 42.544 131.462 43.312 132.55 43.824C133.638 44.304 134.854 44.544 136.198 44.544C137.542 44.544 138.582 44.32 139.318 43.872C140.054 43.392 140.422 42.736 140.422 41.904C140.422 41.072 140.118 40.432 139.51 39.984C138.934 39.504 138.182 39.12 137.254 38.832C136.326 38.512 135.334 38.208 134.278 37.92C133.254 37.6 132.278 37.2 131.35 36.72C130.422 36.24 129.654 35.584 129.046 34.752C128.47 33.92 128.182 32.816 128.182 31.44C128.182 30.064 128.518 28.88 129.19 27.888C129.862 26.864 130.79 26.08 131.974 25.536C133.19 24.992 134.646 24.72 136.342 24.72C138.134 24.72 139.718 25.04 141.094 25.68C142.502 26.288 143.654 27.216 144.55 28.464L141.766 31.248C141.126 30.416 140.326 29.776 139.366 29.328C138.438 28.88 137.382 28.656 136.198 28.656C134.95 28.656 133.99 28.88 133.318 29.328C132.678 29.744 132.358 30.336 132.358 31.104C132.358 31.872 132.646 32.464 133.222 32.88C133.798 33.296 134.55 33.648 135.478 33.936C136.438 34.224 137.43 34.528 138.454 34.848C139.478 35.136 140.454 35.536 141.382 36.048C142.31 36.56 143.062 37.248 143.638 38.112C144.246 38.976 144.55 40.112 144.55 41.52C144.55 43.664 143.782 45.36 142.246 46.608C140.742 47.856 138.71 48.48 136.15 48.48ZM159.947 48.48C157.675 48.48 155.627 47.968 153.803 46.944C151.979 45.888 150.539 44.464 149.483 42.672C148.427 40.88 147.899 38.848 147.899 36.576C147.899 34.336 148.411 32.32 149.435 30.528C150.491 28.736 151.899 27.328 153.659 26.304C155.451 25.248 157.451 24.72 159.659 24.72C161.771 24.72 163.627 25.2 165.227 26.16C166.859 27.12 168.123 28.448 169.019 30.144C169.947 31.84 170.411 33.76 170.411 35.904C170.411 36.224 170.395 36.576 170.363 36.96C170.331 37.312 170.267 37.728 170.171 38.208H150.923V34.608H167.867L166.283 36C166.283 34.464 166.011 33.168 165.467 32.112C164.923 31.024 164.155 30.192 163.163 29.616C162.171 29.008 160.971 28.704 159.563 28.704C158.091 28.704 156.795 29.024 155.675 29.664C154.555 30.304 153.691 31.2 153.083 32.352C152.475 33.504 152.171 34.864 152.171 36.432C152.171 38.032 152.491 39.44 153.131 40.656C153.771 41.84 154.683 42.768 155.867 43.44C157.051 44.08 158.411 44.4 159.947 44.4C161.227 44.4 162.395 44.176 163.451 43.728C164.539 43.28 165.467 42.608 166.235 41.712L169.019 44.544C167.931 45.824 166.587 46.8 164.987 47.472C163.419 48.144 161.739 48.48 159.947 48.48Z" fill="white"/>
</svg>
