<svg width="195" height="60" viewBox="0 0 195 60" fill="none" xmlns="http://www.w3.org/2000/svg">
<path d="M22.928 48V24.96H28.208V48H22.928ZM28.208 35.184L26.384 34.272C26.384 31.36 27.024 29.008 28.304 27.216C29.616 25.392 31.584 24.48 34.208 24.48C35.36 24.48 36.4 24.688 37.328 25.104C38.256 25.52 39.12 26.192 39.92 27.12L36.464 30.672C36.048 30.224 35.584 29.904 35.072 29.712C34.56 29.52 33.968 29.424 33.296 29.424C31.824 29.424 30.608 29.888 29.648 30.816C28.688 31.744 28.208 33.2 28.208 35.184ZM52.4758 48.48C50.1718 48.48 48.0918 47.968 46.2358 46.944C44.4118 45.888 42.9558 44.448 41.8678 42.624C40.8118 40.8 40.2838 38.752 40.2838 36.48C40.2838 34.208 40.8118 32.176 41.8678 30.384C42.9238 28.56 44.3478 27.12 46.1398 26.064C47.9638 25.008 49.9798 24.48 52.1878 24.48C54.3318 24.48 56.2198 24.976 57.8518 25.968C59.5158 26.96 60.8118 28.32 61.7398 30.048C62.6998 31.776 63.1798 33.744 63.1798 35.952C63.1798 36.336 63.1478 36.736 63.0837 37.152C63.0518 37.536 62.9878 37.968 62.8918 38.448H43.9798V34.128H60.1558L58.1878 35.856C58.1238 34.448 57.8518 33.264 57.3718 32.304C56.8918 31.344 56.2038 30.608 55.3078 30.096C54.4438 29.584 53.3718 29.328 52.0918 29.328C50.7478 29.328 49.5798 29.616 48.5878 30.192C47.5958 30.768 46.8278 31.584 46.2838 32.64C45.7398 33.664 45.4678 34.896 45.4678 36.336C45.4678 37.776 45.7558 39.04 46.3318 40.128C46.9078 41.216 47.7238 42.064 48.7798 42.672C49.8358 43.248 51.0518 43.536 52.4278 43.536C53.6118 43.536 54.6998 43.328 55.6918 42.912C56.7158 42.496 57.5798 41.888 58.2838 41.088L61.6438 44.496C60.5238 45.808 59.1638 46.8 57.5638 47.472C55.9638 48.144 54.2678 48.48 52.4758 48.48Z" fill="black"/>
<path fill-rule="evenodd" clip-rule="evenodd" d="M78 14.8333C78 13.6367 78.9701 12.6667 80.1667 12.6667C81.3633 12.6667 82.3334 13.6367 82.3334 14.8333C82.3334 16.0299 81.3633 17 80.1667 17C78.9701 17 78 16.0299 78 14.8333ZM82.3334 20.9635C84.8579 20.0712 86.6667 17.6635 86.6667 14.8333C86.6667 11.2435 83.7565 8.33334 80.1667 8.33334C76.5768 8.33334 73.6667 11.2435 73.6667 14.8333C73.6667 17.6635 75.4754 20.0712 78 20.9635V39.0365C75.4754 39.9288 73.6667 42.3366 73.6667 45.1667C73.6667 48.7566 76.5768 51.6667 80.1667 51.6667C83.7565 51.6667 86.6667 48.7566 86.6667 45.1667C86.6667 42.4224 84.966 40.0752 82.561 39.1219C83.3122 36.3624 85.8358 34.3333 88.8334 34.3333H93.1667C100.346 34.3333 106.167 28.513 106.167 21.3333V20.9635C108.691 20.0712 110.5 17.6635 110.5 14.8333C110.5 11.2435 107.59 8.33334 104 8.33334C100.41 8.33334 97.5 11.2435 97.5 14.8333C97.5 17.6635 99.3088 20.0712 101.833 20.9635V21.3333C101.833 26.1197 97.9531 30 93.1667 30H88.8334C86.3945 30 84.1439 30.8058 82.3334 32.1658V20.9635ZM104 17C105.197 17 106.167 16.0299 106.167 14.8333C106.167 13.6367 105.197 12.6667 104 12.6667C102.803 12.6667 101.833 13.6367 101.833 14.8333C101.833 16.0299 102.803 17 104 17ZM78 45.1667C78 43.97 78.9701 43 80.1667 43C81.3633 43 82.3334 43.97 82.3334 45.1667C82.3334 46.3633 81.3633 47.3333 80.1667 47.3333C78.9701 47.3333 78 46.3633 78 45.1667Z" fill="#A8EB00"/>
<path d="M119.976 48V24.96H125.256V48H119.976ZM122.616 20.736C121.72 20.736 120.968 20.432 120.36 19.824C119.784 19.216 119.496 18.464 119.496 17.568C119.496 16.672 119.784 15.92 120.36 15.312C120.968 14.704 121.72 14.4 122.616 14.4C123.544 14.4 124.296 14.704 124.872 15.312C125.448 15.92 125.736 16.672 125.736 17.568C125.736 18.464 125.448 19.216 124.872 19.824C124.296 20.432 123.544 20.736 122.616 20.736ZM138.714 48.48C137.434 48.48 136.202 48.32 135.018 48C133.834 47.648 132.746 47.168 131.754 46.56C130.762 45.92 129.898 45.152 129.162 44.256L132.522 40.896C133.322 41.824 134.234 42.528 135.258 43.008C136.314 43.456 137.498 43.68 138.81 43.68C139.994 43.68 140.89 43.504 141.498 43.152C142.106 42.8 142.41 42.288 142.41 41.616C142.41 40.912 142.122 40.368 141.546 39.984C140.97 39.6 140.218 39.28 139.29 39.024C138.394 38.736 137.434 38.448 136.41 38.16C135.418 37.872 134.458 37.488 133.53 37.008C132.634 36.496 131.898 35.808 131.322 34.944C130.746 34.08 130.458 32.96 130.458 31.584C130.458 30.112 130.794 28.848 131.466 27.792C132.17 26.736 133.146 25.92 134.394 25.344C135.674 24.768 137.194 24.48 138.954 24.48C140.81 24.48 142.442 24.816 143.85 25.488C145.29 26.128 146.49 27.104 147.45 28.416L144.09 31.776C143.418 30.944 142.65 30.32 141.786 29.904C140.922 29.488 139.93 29.28 138.81 29.28C137.754 29.28 136.938 29.44 136.362 29.76C135.786 30.08 135.498 30.544 135.498 31.152C135.498 31.792 135.786 32.288 136.362 32.64C136.938 32.992 137.674 33.296 138.57 33.552C139.498 33.808 140.458 34.096 141.45 34.416C142.474 34.704 143.434 35.12 144.33 35.664C145.258 36.176 146.01 36.88 146.586 37.776C147.162 38.64 147.45 39.776 147.45 41.184C147.45 43.424 146.666 45.2 145.098 46.512C143.53 47.824 141.402 48.48 138.714 48.48ZM162.507 48.48C160.203 48.48 158.123 47.968 156.267 46.944C154.443 45.888 152.987 44.448 151.899 42.624C150.843 40.8 150.315 38.752 150.315 36.48C150.315 34.208 150.843 32.176 151.899 30.384C152.955 28.56 154.379 27.12 156.171 26.064C157.995 25.008 160.011 24.48 162.219 24.48C164.363 24.48 166.251 24.976 167.883 25.968C169.547 26.96 170.843 28.32 171.771 30.048C172.731 31.776 173.211 33.744 173.211 35.952C173.211 36.336 173.179 36.736 173.115 37.152C173.083 37.536 173.019 37.968 172.923 38.448H154.011V34.128H170.187L168.219 35.856C168.155 34.448 167.883 33.264 167.403 32.304C166.923 31.344 166.235 30.608 165.339 30.096C164.475 29.584 163.403 29.328 162.123 29.328C160.779 29.328 159.611 29.616 158.619 30.192C157.627 30.768 156.859 31.584 156.315 32.64C155.771 33.664 155.499 34.896 155.499 36.336C155.499 37.776 155.787 39.04 156.363 40.128C156.939 41.216 157.755 42.064 158.811 42.672C159.867 43.248 161.083 43.536 162.459 43.536C163.643 43.536 164.731 43.328 165.723 42.912C166.747 42.496 167.611 41.888 168.315 41.088L171.675 44.496C170.555 45.808 169.195 46.8 167.595 47.472C165.995 48.144 164.299 48.48 162.507 48.48Z" fill="black"/>
</svg>
